<svg xmlns="http://www.w3.org/2000/svg" width="640" height="420" viewBox="0 0 640 420" role="img" aria-label="XD0308 Comgo Education preview">
  <rect width="640" height="420" fill="#fff9ef"/><rect width="640" height="70" fill="#42228f"/>
  <rect x="34" y="18" width="34" height="34" rx="10" fill="#ff7a24"/><text x="80" y="43" fill="#fff" font-family="Arial" font-size="23" font-weight="900">COMGO</text>
  <g fill="#d9cdf5"><rect x="350" y="32" width="38" height="6" rx="3"/><rect x="408" y="32" width="38" height="6" rx="3"/><rect x="466" y="32" width="38" height="6" rx="3"/></g><rect x="530" y="20" width="78" height="30" rx="15" fill="#fff"/>
  <path d="M380 70h260v220H380z" fill="#6f54b5"/><circle cx="515" cy="178" r="94" fill="#8067bd"/><path d="M470 215l45-112 46 112z" fill="#ffd95a" opacity=".7"/>
  <text x="36" y="124" fill="#ff7a24" font-family="Arial" font-size="11" font-weight="800" letter-spacing="2">TƯ VẤN DU HỌC COMGO</text>
  <text x="36" y="170" fill="#281258" font-family="Arial" font-size="39" font-weight="900">MỞ CỬA</text><text x="36" y="211" fill="#281258" font-family="Arial" font-size="39" font-weight="900">TƯƠNG LAI.</text>
  <rect x="36" y="240" width="126" height="36" rx="18" fill="#ff7a24"/>
  <g transform="translate(36 320)"><rect width="128" height="72" rx="18" fill="#42228f"/><rect x="144" width="128" height="72" rx="18" fill="#fff"/><rect x="288" width="128" height="72" rx="18" fill="#fff"/><rect x="432" width="128" height="72" rx="18" fill="#fff"/></g>
</svg>
