<svg xmlns="http://www.w3.org/2000/svg" width="640" height="420" viewBox="0 0 640 420" role="img" aria-label="XD0310 Garden Haven preview">
  <defs>
    <linearGradient id="hero" x1="0" y1="0" x2="1" y2="1">
      <stop offset="0" stop-color="#173d25"/>
      <stop offset=".58" stop-color="#2f6b3b"/>
      <stop offset="1" stop-color="#a8c66c"/>
    </linearGradient>
    <pattern id="leaves" width="54" height="54" patternUnits="userSpaceOnUse">
      <ellipse cx="13" cy="19" rx="8" ry="16" fill="#dfead8" opacity=".14" transform="rotate(-38 13 19)"/>
      <ellipse cx="38" cy="38" rx="7" ry="14" fill="#ffffff" opacity=".1" transform="rotate(42 38 38)"/>
    </pattern>
  </defs>
  <rect width="640" height="420" fill="#f6f4ea"/>
  <rect width="640" height="70" fill="#173d25"/>
  <path d="M53 20c17-13 35 0 31 18-4 17-24 22-38 9 11-2 20-8 24-18-7 7-15 11-24 12-1-8 1-15 7-21z" fill="#a8c66c"/>
  <rect x="94" y="25" width="108" height="20" rx="5" fill="#ffffff"/>
  <g fill="#dfead8">
    <rect x="314" y="30" width="48" height="8" rx="4"/>
    <rect x="378" y="30" width="48" height="8" rx="4"/>
    <rect x="442" y="30" width="48" height="8" rx="4"/>
  </g>
  <rect x="514" y="20" width="80" height="28" rx="14" fill="none" stroke="#a8c66c"/>
  <rect y="70" width="640" height="208" fill="url(#hero)"/>
  <rect y="70" width="640" height="208" fill="url(#leaves)"/>
  <path d="M470 278c-16-80 6-154 105-190-39 53-20 96 65 122v68z" fill="#dfead8" opacity=".28"/>
  <rect x="54" y="111" width="3" height="123" fill="#a8c66c"/>
  <rect x="74" y="116" width="90" height="8" rx="4" fill="#a8c66c"/>
  <rect x="74" y="143" width="260" height="22" rx="6" fill="#ffffff"/>
  <rect x="74" y="176" width="212" height="22" rx="6" fill="#ffffff"/>
  <rect x="74" y="214" width="128" height="32" rx="16" fill="#a8c66c"/>
  <g transform="translate(54 308)">
    <rect width="122" height="86" rx="18 18 5 18" fill="#ffffff"/>
    <rect x="140" width="122" height="86" rx="18 18 5 18" fill="#ffffff"/>
    <rect x="280" width="122" height="86" rx="18 18 5 18" fill="#ffffff"/>
    <rect x="420" width="122" height="86" rx="18 18 5 18" fill="#ffffff"/>
    <g fill="#2f6b3b">
      <circle cx="28" cy="25" r="12"/><circle cx="168" cy="25" r="12"/><circle cx="308" cy="25" r="12"/><circle cx="448" cy="25" r="12"/>
      <rect x="22" y="51" width="74" height="8" rx="4"/><rect x="162" y="51" width="74" height="8" rx="4"/>
      <rect x="302" y="51" width="74" height="8" rx="4"/><rect x="442" y="51" width="74" height="8" rx="4"/>
    </g>
  </g>
</svg>
