<svg xmlns="http://www.w3.org/2000/svg" width="1200" height="760" viewBox="0 0 1200 760">
  <defs>
    <linearGradient id="ocean" x1="0" y1="0" x2="1" y2="1"><stop stop-color="#013e73"/><stop offset="1" stop-color="#0798e7"/></linearGradient>
    <linearGradient id="fish" x1="0" y1="0" x2="1" y2="0"><stop stop-color="#fff"/><stop offset=".55" stop-color="#fff2cf"/><stop offset="1" stop-color="#ff8b12"/></linearGradient>
  </defs>
  <rect width="1200" height="760" fill="#fff"/>
  <rect width="1200" height="28" fill="#0787dc"/><rect y="28" width="1200" height="82" fill="#fff"/>
  <circle cx="112" cy="69" r="43" fill="#dff5ff"/><path d="M78 72q34-42 70 0-38 34-70 0z" fill="#1595dd"/><text x="160" y="65" font-family="Arial" font-size="22" font-weight="700" fill="#ffad13">SUDES</text><text x="160" y="88" font-family="Arial" font-size="25" font-weight="700" fill="#0787dc">AQUARIUM</text>
  <g font-family="Arial" font-size="15" fill="#333"><text x="415" y="72">Trang chủ</text><text x="505" y="72">Giới thiệu</text><text x="600" y="72">Sản phẩm</text><text x="695" y="72">Bộ sưu tập</text><text x="795" y="72">Tin tức</text><text x="865" y="72">FAQ</text></g>
  <rect y="110" width="1200" height="430" fill="url(#ocean)"/>
  <g transform="translate(630 170)"><ellipse cx="220" cy="145" rx="205" ry="115" fill="url(#fish)"/><polygon points="375,145 535,35 500,145 535,255" fill="#f7f5e8"/><polygon points="175,55 265,-10 300,75" fill="#faf7e9"/><circle cx="63" cy="132" r="18" fill="#111"/><path d="M45 170q-35 12-48-6" fill="none" stroke="#ef7a13" stroke-width="8"/></g>
  <g fill="#fff" opacity=".65"><circle cx="70" cy="185" r="4"/><circle cx="190" cy="260" r="7"/><circle cx="420" cy="180" r="5"/><circle cx="540" cy="350" r="4"/><circle cx="1020" cy="190" r="6"/></g>
  <path d="M0 505q160 60 320 15t320 6 320-8 240 5v75H0z" fill="#fff"/>
  <text x="600" y="610" text-anchor="middle" font-family="Arial" font-size="31" font-weight="700" fill="#0787dc">KHÁM PHÁ SUDES AQUARIUM</text>
  <g transform="translate(105 655)" fill="#dff3ff"><circle cx="0" cy="0" r="55"/><circle cx="195" cy="0" r="55"/><circle cx="390" cy="0" r="55"/><circle cx="585" cy="0" r="55"/><circle cx="780" cy="0" r="55"/><circle cx="975" cy="0" r="55"/></g>
</svg>
