<svg width="1600" height="900" viewBox="0 0 1600 900" fill="none" xmlns="http://www.w3.org/2000/svg">
  <rect width="1600" height="900" fill="#0F172A"/>
  <rect x="0" y="620" width="1600" height="280" fill="#082F49"/>
  <rect x="0" y="706" width="1600" height="16" fill="#F8FAFC" fill-opacity="0.55"/>
  <rect x="90" y="170" width="690" height="360" rx="36" fill="#FFFFFF" fill-opacity="0.08" stroke="#FFFFFF" stroke-opacity="0.12"/>
  <text x="140" y="258" fill="#FDBA74" font-family="Segoe UI, Arial, sans-serif" font-size="26" font-weight="700">AIRPORT TRANSFER • CITY RIDE • VIP PICKUP</text>
  <text x="140" y="366" fill="#F8FAFC" font-family="Segoe UI, Arial, sans-serif" font-size="78" font-weight="900">Nhan bao gia</text>
  <text x="140" y="450" fill="#F8FAFC" font-family="Segoe UI, Arial, sans-serif" font-size="78" font-weight="900">de dieu xe ngay</text>
  <text x="140" y="522" fill="#E2E8F0" font-family="Segoe UI, Arial, sans-serif" font-size="34">Service hero cho nha xe, shuttle doanh nghiep va city transfer.</text>
  <rect x="980" y="248" width="420" height="202" rx="42" fill="#FFFFFF" fill-opacity="0.1" stroke="#FFFFFF" stroke-opacity="0.12"/>
  <rect x="1008" y="402" width="356" height="162" rx="30" fill="#1F6F78"/>
  <path d="M1006 468C1006 426.026 1040.03 392 1082 392H1242C1268.51 392 1290 413.49 1290 440V468H1006Z" fill="#F8FAFC"/>
  <path d="M1040 564H1378C1401.2 564 1420 582.804 1420 606V620H1040V564Z" fill="#FDBA74"/>
  <circle cx="1112" cy="620" r="28" fill="#0F172A"/>
  <circle cx="1324" cy="620" r="28" fill="#0F172A"/>
  <text x="1176" y="350" fill="#F8FAFC" font-family="Segoe UI, Arial, sans-serif" font-size="28" font-weight="700">Hotline 1900 6760</text>
  <text x="1176" y="618" fill="#0F172A" font-family="Segoe UI, Arial, sans-serif" font-size="26" font-weight="800" text-anchor="middle">Airport shuttle</text>
</svg>
