<svg xmlns="http://www.w3.org/2000/svg" width="640" height="420" viewBox="0 0 640 420" role="img" aria-label="XD0306 Black Digital preview">
  <rect width="640" height="420" fill="#09090b"/>
  <rect width="640" height="64" fill="#0f0f12"/>
  <text x="38" y="40" fill="#fff" font-family="Arial" font-size="16" font-weight="800" letter-spacing="2">BLACK / DIGITAL</text>
  <g fill="#8f8f96"><rect x="352" y="29" width="42" height="6" rx="3"/><rect x="414" y="29" width="42" height="6" rx="3"/><rect x="476" y="29" width="42" height="6" rx="3"/></g>
  <rect x="542" y="18" width="65" height="28" fill="#ff3b30"/>
  <rect x="330" y="64" width="310" height="222" fill="#202026"/>
  <path d="M330 64h310v222H330z" fill="url(#g)"/>
  <defs><linearGradient id="g" x1="330" y1="64" x2="640" y2="286"><stop stop-color="#383842"/><stop offset="1" stop-color="#121216"/></linearGradient></defs>
  <text x="38" y="112" fill="#ff3b30" font-family="Arial" font-size="11" font-weight="700" letter-spacing="3">CREATIVE AGENCY</text>
  <text x="38" y="159" fill="#fff" font-family="Arial" font-size="43" font-weight="900">THIẾT KẾ</text>
  <text x="38" y="204" fill="#fff" font-family="Arial" font-size="43" font-weight="900">KHÁC BIỆT.</text>
  <rect x="38" y="234" width="104" height="34" fill="#ff3b30"/>
  <rect y="286" width="640" height="134" fill="#121215"/>
  <g transform="translate(38 312)"><rect width="176" height="84" fill="#19191d"/><rect x="194" width="176" height="84" fill="#ff3b30"/><rect x="388" width="176" height="84" fill="#19191d"/><g fill="#fff"><rect x="18" y="18" width="68" height="8"/><rect x="212" y="18" width="68" height="8"/><rect x="406" y="18" width="68" height="8"/></g><g fill="#777780"><rect x="18" y="42" width="120" height="5"/><rect x="212" y="42" width="120" height="5"/><rect x="406" y="42" width="120" height="5"/></g></g>
</svg>
