<svg width="156" height="64" viewBox="0 0 156 64" fill="none" xmlns="http://www.w3.org/2000/svg">
  <path d="M13 57V20L32 7L51 20V57H13Z" fill="#B8D800"/>
  <path d="M23 57V27H41V57H23Z" fill="white"/>
  <path d="M29 36V26H36V36H29Z" fill="#B8D800"/>
  <path d="M63.2 46H57.6L68.4 18H74.7L85.5 46H79.6L77.4 40H65.4L63.2 46ZM67.1 35.3H75.7L71.4 23.3L67.1 35.3Z" fill="#26384B"/>
  <path d="M89.1 46V25.1H94.2V28.7C95.4 26.2 97.4 24.9 100.1 24.9H101.2V30.2H99.5C96.1 30.2 94.4 32 94.4 35.6V46H89.1Z" fill="#26384B"/>
  <path d="M104.7 46V17H110V33.4L117.2 25.1H123.7L115.8 34L124.3 46H117.9L112.2 37.6L110 40V46H104.7Z" fill="#26384B"/>
  <path d="M127.2 21.8V17H132.8V21.8H127.2ZM127.3 46V25.1H132.7V46H127.3Z" fill="#B8D800"/>
  <path d="M146.2 46.3C142 46.3 139.9 44.3 139.9 40.3V29.6H136V25.1H139.9V19.5H145.2V25.1H150.4V29.6H145.2V39.2C145.2 40.8 146 41.6 147.7 41.6H150.4V46H146.2Z" fill="#26384B"/>
</svg>
